<?xml version="1.0" ?><!DOCTYPE svg  PUBLIC '-//W3C//DTD SVG 1.1//EN'  'http://www.w3.org/Graphics/SVG/1.1/DTD/svg11.dtd'><svg enable-background="new 0 0 512 512" id="Layer_1" version="1.1" viewBox="0 0 512 512" xml:space="preserve" xmlns="http://www.w3.org/2000/svg" xmlns:xlink="http://www.w3.org/1999/xlink"><g><path d="M371.2,362.5c-6.4-1.4-10.9-4.3-15.5-6.8c-8.9-5-16.5-11.6-24.6-17.7c-2.2-1.7-4.9-5-7.7-3.2   c-2.7,1.7-1.3,5.6-1,8.5c2.6,20.9-2.3,39.4-17.7,54.2c-12.3,11.8-21.5,25.2-25.7,41.8c-1.2,4.5-2.2,9.1-1.9,13.8   c0.3,5.9,2.5,8,8.4,8c9.7-0.1,19-2.8,28.5-4.4c20.7-3.6,39.3,0.5,55.3,14.6c2.9,2.6,4.7,6,6,9.6c2.6,7.7,0.3,13.4-7,17   c-11.2,5.5-23.3,6.6-35.4,7c-13.3,0.5-26.7,0.1-40,0.1c-5.5,0-10.9-1.1-16.2-2.7c-3.4-1-6.2-3-8.4-5.8c-4.6-5.9-10.6-5.6-14.8,0.6   c-4.1,6-10.4,7.5-17,7.9c-18.8,1.2-37.5,1.1-56.2-0.8c-7.4-0.8-14.8-1.9-22-4.4c-13.5-4.7-16.5-15.6-7-26.3   c10.9-12.4,25.5-16.9,41.4-17.9c11.8-0.7,23,3.1,34.5,4.7c3.8,0.5,7.6,0.8,11.4,0.8c4.2,0,6.2-2.5,6.5-6.7   c0.7-10.3-3.7-19.1-8.4-27.7c-5.8-10.7-15.8-17.3-24.5-25.2c-18-16.3-26-36.5-22.2-60.8c0.3-2.1,1.4-4.7-0.4-6.1   c-2.2-1.7-4.8-0.4-6.9,1c-10,6.8-19.9,13.7-30,20.4c-4.2,2.8-8.6,5.5-14.8,6.4c4-7.9,9.8-13.4,15.1-19.1   c9.6-10.3,20.5-19.4,29-30.8c9.5-12.7,8.2-22.6-4-32.8c-11.7-9.8-23.2-19.9-31.4-33c-21-33.6-22.2-67.6-2.7-102.2   c16-28.6,36-54.5,56.7-79.7c13-15.8,26.1-31.4,41.1-45.3c5.1-4.7,10.4-9.2,16.7-12.5c7.7-4,11.9-3.4,18.7,2   c8.1,6.5,14.9,14.2,21.3,22.3c26.8,34,49.4,70.5,67.1,110.1c18.7,42,7.3,100.3-30.7,132.3c-6.2,5.2-12.6,10.3-19.5,14.5   c-5.4,3.3-6.3,7.4-3.1,13.1c3.4,6.1,8.7,10.6,13.7,15.1c13.1,11.8,26,23.8,38.1,36.6C366.6,355.2,368.8,358,371.2,362.5z    M176.6,188.9c-0.2,27.9,9,48.5,25.1,66.4c13.7,15.1,30.3,26,49.9,31.7c27.9,8.2,52.4,1.5,75.5-15.7   c39.2-29.2,50.9-85.5,33.1-124.6c-16.1-35.3-36.1-68.1-60.4-98.3c-5.5-6.9-11.3-13.6-18.7-18.5c-3.3-2.2-6.4-2.1-9.8-0.2   c-4.9,2.7-8.6,6.9-12.1,11.1c-10.8,12.9-19,27.6-28.9,41.2c-13.5,18.7-26.8,37.6-37.8,58.1C183.7,156.5,175.8,173.1,176.6,188.9z    M313.2,355.1c-0.1-25.5-20.5-46-46-46.2c-25.4-0.1-46.3,20.8-46.3,46.4c0,25.9,20.9,46.6,46.8,46.3   C293,401.5,313.2,380.7,313.2,355.1z M304.6,472.1c-9.2,0.1-16.6,1.1-21.5,8c-1.6,2.2-3.2,4.7-1.9,7.4c1.3,2.5,4.1,2.5,6.6,2.5   c7.7,0,15.1,1.4,22.4,4.1c8.7,3.3,17.8,4.1,26.8,0.5c3.1-1.2,6.3-3,6.7-6.7c0.3-3.7-2.8-5.4-5.7-6.8   C327,475.6,315.3,472.9,304.6,472.1z M197.1,496.7c1.2,0,2.4,0.2,3.5,0c12.5-2,24.3-7.8,37.4-7.3c3.4,0.1,4.7-2.5,3.1-6.1   c-2.1-4.6-5.4-7.8-10.3-9.5c-8-2.8-16-1.8-24.1-0.1c-8.1,1.8-16.2,3.6-23.4,7.9c-6,3.6-6.1,8.1-0.1,11.7   C187.4,496,192.2,496.6,197.1,496.7z M271.1,434.4c-0.1-1.7,0-3.8-0.4-5.7c-1.2-6.1-4.2-8.7-9.7-8.7c-5.4,0.1-8,2.8-9.2,9.1   c-1.7,9.5,1.4,18,5,26.4c0.8,1.9,1.9,3.9,4,4.1c2.5,0.2,3.7-2.1,4.7-4C268.9,449.1,271.1,442.2,271.1,434.4z" fill="#262223"/><path d="M111.8,367.1c3.4,0,5.4,0,7.4,0c7.5,0,9.7,1.7,9.6,9.3c-0.2,14.6-1.1,29.2-3.8,43.5c-0.4,2-0.7,4.8-3.1,5.2   c-3,0.6-3.6-2.7-4.4-4.5c-1.6-3.6-3.2-7.3-3.6-11.3c-0.2-2.4-0.4-5.4-3.1-6.3c-2.5-0.8-4.1,1.7-5.8,3.1c-4.1,3.4-8.3,6.6-13.2,8.9   c-1.6,0.8-3.7,1.8-5.2,0.5c-1.6-1.4-0.5-3.4,0.1-5.1c2.1-6,6.2-10.9,9.6-16.2c0.8-1.3,1.7-2.5,2.4-3.8c2.9-5.2,1.9-7.2-4.1-7.7   c-6.3-0.6-12.5-1.8-18.2-4.8c-1.4-0.7-2.8-1.5-2.6-3.3c0.2-1.6,1.6-2.4,3.1-2.9c4.9-1.6,9.9-2.5,15.1-2.9   C99,368.1,106,367,111.8,367.1z" fill="#292526"/><path d="M395.5,367.1c11.7,0.7,23.5,0.9,35,4c2.1,0.6,4.9,1,5,3.4c0.1,2.1-2.4,3.4-4.4,4.2c-5.4,2.2-11,3.5-16.9,4   c-5.4,0.4-6.8,2.9-3.9,7.6c3.8,6.2,8.4,11.9,11.5,18.6c1,2.2,2.3,4.6,0.4,6.5c-1.8,1.9-4-0.1-5.9-1c-5.1-2.2-9.2-5.9-13.4-9.2   c-4.6-3.6-6.9-2.7-7.6,3.2c-0.5,4-1.8,7.7-3.2,11.5c-0.9,2.4-2.3,5.4-4.6,5.5c-2.9,0-3.3-3.7-3.6-5.9c-2.2-14.8-4-29.6-3.7-44.6   c0.1-5.7,2.8-7.7,8.8-7.7C391.2,367.1,393.4,367.1,395.5,367.1z" fill="#292526"/><path d="M176.6,188.9c-0.8-15.8,7.1-32.4,15.9-48.8c10.9-20.4,24.2-39.3,37.8-58.1c9.8-13.6,18.1-28.3,28.9-41.2   c3.5-4.2,7.1-8.3,12.1-11.1c3.4-1.9,6.5-2,9.8,0.2c7.5,4.9,13.2,11.6,18.7,18.5c24.3,30.2,44.3,63,60.4,98.3   c17.8,39.1,6.1,95.4-33.1,124.6c-23.1,17.2-47.6,23.9-75.5,15.7c-19.6-5.7-36.2-16.6-49.9-31.7   C185.6,237.5,176.4,216.8,176.6,188.9z M353,181.5c0.1-5-0.1-10-1.1-14.9c-2.7-13.2-7.1-25.7-18-34.7c-9.7-8-21.3-7.8-30.9,0.4   c-3.5,2.9-6.3,6.4-9,10c-4.4,5.9-8.7,6-13.4,0.3c-1.9-2.3-3.4-4.9-5.1-7.4c-13.5-20.4-38.6-22.7-55.4-5   c-10.5,11.1-15.6,24.6-17.7,39.4c-3.4,23.6,0.1,45.9,14.8,65.3c14.1,18.6,37.2,20.3,52.9,4.3c5.1-5.2,8.8-11.2,12.1-17.6   c3.4-6.5,7-6.7,11.7-1c1.6,1.9,3.1,3.9,4.7,5.8c3.9,4.2,8.1,8,13.7,9.6c11.3,3,20-1.6,26.8-10.1C349.6,213,353,197.8,353,181.5z" fill="#99C965"/><path d="M313.2,355.1c0.1,25.6-20.2,46.4-45.5,46.6c-25.9,0.2-46.7-20.4-46.8-46.3c0-25.6,20.8-46.5,46.3-46.4   C292.7,309.1,313.1,329.6,313.2,355.1z M278,368.8c0.2-5.3-3.2-8.9-8.4-9c-4.9-0.1-8.6,3.4-8.7,8.2c-0.2,5.2,3.4,9,8.4,9.1   C274.3,377.1,277.8,373.7,278,368.8z" fill="#99C965"/><path d="M304.6,472.1c10.7,0.8,22.4,3.6,33.4,8.9c2.8,1.4,6,3.1,5.7,6.8c-0.3,3.7-3.6,5.5-6.7,6.7   c-9,3.6-18.1,2.7-26.8-0.5c-7.3-2.7-14.6-4.1-22.4-4.1c-2.5,0-5.4,0-6.6-2.5c-1.4-2.7,0.3-5.2,1.9-7.4   C288,473.2,295.4,472.2,304.6,472.1z" fill="#99C965"/><path d="M197.1,496.7c-4.9-0.1-9.7-0.7-13.9-3.3c-6-3.7-5.9-8.1,0.1-11.7c7.2-4.3,15.3-6.2,23.4-7.9   c8.1-1.7,16-2.7,24.1,0.1c4.8,1.7,8.2,4.8,10.3,9.5c1.6,3.5,0.2,6.2-3.1,6.1c-13.1-0.5-24.9,5.2-37.4,7.3   C199.4,496.8,198.2,496.7,197.1,496.7z" fill="#99C965"/><path d="M353,181.5c0,16.2-3.4,31.5-13.8,44.4c-6.8,8.5-15.5,13.1-26.8,10.1c-5.7-1.5-9.9-5.4-13.7-9.6   c-1.7-1.8-3.2-3.9-4.7-5.8c-4.7-5.7-8.3-5.5-11.7,1c-3.3,6.4-7.1,12.4-12.1,17.6c-15.7,16-38.8,14.3-52.9-4.3   c-14.7-19.4-18.3-41.7-14.8-65.3c2.1-14.8,7.2-28.4,17.7-39.4c16.8-17.8,42-15.5,55.4,5c1.6,2.5,3.2,5.1,5.1,7.4   c4.7,5.7,9,5.6,13.4-0.3c2.7-3.6,5.5-7.1,9-10c9.7-8.2,21.2-8.4,30.9-0.4c10.9,9,15.3,21.5,18,34.7   C352.9,171.5,353.1,176.5,353,181.5z M277.1,185.7c-0.1-13-2.7-24-9-34.1c-11.3-18-32.3-18.4-44.1-0.8c-6,9-8.9,18.9-9.4,29.6   c-0.7,14.9,2.2,28.9,12,40.7c10.5,12.6,25.4,13.2,36.9,1.4C273.7,211.9,276.5,198.5,277.1,185.7z M343,184.3   c0.1-14.4-3-25-9.1-33.3c-8.3-11.3-22.2-11.4-30.6-0.1c-4.4,5.8-6.9,12.5-8.1,19.6c-2.5,15-1,29.3,8.4,41.8   c8.2,11,20.8,11.1,29.6,0.5C340.5,204,342.5,193.2,343,184.3z" fill="#272323"/><path d="M278,368.8c-0.2,4.9-3.7,8.3-8.7,8.2c-5.1-0.1-8.6-3.9-8.4-9.1c0.2-4.8,3.9-8.3,8.7-8.2   C274.9,359.9,278.2,363.5,278,368.8z" fill="#272323"/><path d="M277.1,185.7c-0.5,12.8-3.4,26.2-13.7,36.7c-11.5,11.8-26.4,11.2-36.9-1.4c-9.8-11.8-12.7-25.8-12-40.7   c0.5-10.7,3.4-20.6,9.4-29.6c11.8-17.6,32.9-17.2,44.1,0.8C274.3,161.6,276.9,172.6,277.1,185.7z M258.1,182.4   c-0.2-6.3-0.9-12.6-4.2-18.2c-3.6-6.1-9-6.2-12.9-0.4c-6,8.8-6.2,28-0.5,36.8c4.4,6.8,10.2,6.5,14-0.8   C257.3,194.3,258,188.4,258.1,182.4z" fill="#FBFAFA"/><path d="M343,184.3c-0.5,8.9-2.4,19.6-9.8,28.5c-8.8,10.6-21.4,10.5-29.6-0.5c-9.3-12.5-10.9-26.8-8.4-41.8   c1.2-7.1,3.7-13.8,8.1-19.6c8.4-11.3,22.3-11.2,30.6,0.1C339.9,159.3,343,170,343,184.3z M311,180.4c-0.3,5.5,0.6,10.6,3.5,15   c3.3,5,7.7,4.8,10.4-0.5c4.7-9.3,4.7-18.8,0.3-28.3c-1.1-2.3-2.6-4.4-5.4-4.5c-3.1-0.1-4.8,2.3-5.9,4.6   C311.7,171,310.5,175.7,311,180.4z" fill="#FBFAFA"/><path d="M258.1,182.4c-0.2,6-0.8,11.9-3.6,17.4c-3.8,7.3-9.6,7.6-14,0.8c-5.7-8.8-5.4-28,0.5-36.8   c4-5.8,9.3-5.7,12.9,0.4C257.2,169.7,257.9,176,258.1,182.4z" fill="#292526"/><path d="M311,180.4c-0.5-4.7,0.6-9.3,2.8-13.7c1.2-2.3,2.8-4.7,5.9-4.6c2.9,0.1,4.4,2.3,5.4,4.5   c4.4,9.4,4.4,19-0.3,28.3c-2.7,5.3-7.1,5.5-10.4,0.5C311.6,190.9,310.7,185.9,311,180.4z" fill="#292526"/></g></svg>