<?xml version="1.0" encoding="UTF-8" standalone="no"?>
<!-- Created with Inkscape (http://www.inkscape.org/) -->

<svg
   xmlns:dc="http://purl.org/dc/elements/1.1/"
   xmlns:cc="http://creativecommons.org/ns#"
   xmlns:rdf="http://www.w3.org/1999/02/22-rdf-syntax-ns#"
   xmlns:svg="http://www.w3.org/2000/svg"
   xmlns="http://www.w3.org/2000/svg"
   xmlns:sodipodi="http://sodipodi.sourceforge.net/DTD/sodipodi-0.dtd"
   xmlns:inkscape="http://www.inkscape.org/namespaces/inkscape"
   width="1024"
   height="1024"
   viewBox="0 0 270.93333 270.93334"
   version="1.1"
   id="svg832"
   inkscape:version="0.92.4 (5da689c313, 2019-01-14)"
   sodipodi:docname="bse-logo-1024.svg"
   inkscape:export-filename="C:\Users\uwe\Pictures\Assets\bse-logo-1024.png"
   inkscape:export-xdpi="96"
   inkscape:export-ydpi="96">
  <defs
     id="defs826" />
  <sodipodi:namedview
     id="base"
     pagecolor="#ffffff"
     bordercolor="#666666"
     borderopacity="1.0"
     inkscape:pageopacity="1"
     inkscape:pageshadow="2"
     inkscape:zoom="0.69509698"
     inkscape:cx="513.30827"
     inkscape:cy="450.05161"
     inkscape:document-units="mm"
     inkscape:current-layer="layer1"
     showgrid="false"
     units="px"
     inkscape:window-width="1920"
     inkscape:window-height="1001"
     inkscape:window-x="-9"
     inkscape:window-y="-9"
     inkscape:window-maximized="1" />
  <metadata
     id="metadata829">
    <rdf:RDF>
      <cc:Work
         rdf:about="">
        <dc:format>image/svg+xml</dc:format>
        <dc:type
           rdf:resource="http://purl.org/dc/dcmitype/StillImage" />
        <dc:title />
      </cc:Work>
    </rdf:RDF>
  </metadata>
  <g
     inkscape:label="Ebene 1"
     inkscape:groupmode="layer"
     id="layer1"
     transform="translate(0,-26.066647)">
    <g
       style="font-style:normal;font-variant:normal;font-weight:normal;font-stretch:condensed;font-size:1464.54382324px;line-height:125%;font-family:Impact;-inkscape-font-specification:'Impact Condensed';letter-spacing:0px;word-spacing:0px;fill:#000000;fill-opacity:1;stroke:none;stroke-width:1px;stroke-linecap:butt;stroke-linejoin:miter;stroke-opacity:1"
       id="g4158"
       transform="matrix(0.11442133,0,0,0.14222894,8.2805979,162.88938)"
       inkscape:export-xdpi="96"
       inkscape:export-ydpi="96">
      <path
         id="path4152"
         style="fill:#0000ff"
         d="m 140.36783,-588.41538 h 300.3459 q 142.30675,0 215.2479,22.16839 73.65626,22.16839 118.70814,90.10377 45.05189,67.22027 45.05189,217.39322 0,101.54552 -32.17992,141.59164 -31.46481,40.046121 -125.14413,61.499399 104.40596,23.598607 141.59164,78.662022 37.18569,54.348306 37.18569,167.335569 v 107.2664 q 0,117.27792 -27.17416,173.77156 -26.45904,56.49363 -85.098,77.2318 -58.63896,20.73817 -240.27672,20.73817 H 140.36783 Z m 301.06101,198.08527 v 257.43935 q 19.30795,-0.71511 30.03459,-0.71511 44.33678,0 56.49364,-21.45328 12.15686,-22.16839 12.15686,-125.14413 0,-54.3483 -10.01153,-75.80158 -10.01153,-22.16839 -26.45905,-27.88926 -15.7324,-5.72088 -62.21451,-6.43599 z m 0,437.646887 V 371.26128 q 63.64473,-2.14532 80.80735,-20.02306 17.87774,-17.87773 17.87774,-87.95844 v -107.9815 q 0,-74.371367 -15.73241,-90.103771 -15.7324,-15.732404 -82.95268,-17.877732 z"
         inkscape:connector-curvature="0" />
      <path
         inkscape:connector-curvature="0"
         id="path4154"
         style="fill:#ff0000"
         d="m 1516.3954,-238.01183 h -279.6077 v -85.81311 q 0,-60.06918 -10.7266,-76.5167 -10.7267,-16.44751 -35.7555,-16.44751 -27.1741,0 -41.4763,22.16839 -13.5871,22.16838 -13.5871,67.22027 0,57.92385 15.7324,87.24333 15.0173,29.31948 85.098,70.79582 200.9457,119.423254 253.1487,195.939947 52.203,76.516693 52.203,246.712703 0,123.71391 -29.3195,182.35287 -28.6044,58.63896 -111.5571,98.68508 -82.9526,39.33101 -193.0795,39.33101 -120.8534,0 -206.6666,-45.76699 Q 915.703,502.12628 889.24396,431.33046 862.78491,360.53465 862.78491,230.38475 V 154.58317 H 1142.3933 V 295.4597 q 0,65.07495 11.4417,83.66779 12.1569,18.59284 42.1915,18.59284 30.0346,0 44.3368,-23.59861 15.0173,-23.5986 15.0173,-70.08071 0,-102.26063 -27.8893,-133.72544 Q 1198.8869,138.85077 1086.6148,65.194509 974.34236,-9.1768569 937.87144,-42.786994 901.40081,-76.39713 877.0871,-135.7512 q -23.59861,-59.35407 -23.59861,-151.60317 0,-133.01033 33.61014,-194.50973 34.32524,-61.4994 110.12743,-95.82464 75.80164,-35.04036 183.06804,-35.04036 117.2779,0 199.5155,37.9008 82.9526,37.90079 109.4117,95.82464 27.1741,57.20874 27.1741,195.22484 z" />
      <path
         inkscape:connector-curvature="0"
         id="path4156"
         style="fill:#ff00ff"
         d="m 1560.7206,-588.41538 h 502.0067 v 231.69541 h -200.9457 v 219.53855 h 188.0737 V 83.072241 H 1861.7816 V 337.65115 h 220.9687 v 231.69541 h -522.0297 z" />
    </g>
  </g>
</svg>
